HIERARCHY
ROOT Hips
{
  OFFSET -187.679 86.5976 -156.378
  CHANNELS 6 Xposition Yposition Zposition Zrotation Xrotation Yrotation
  JOINT LeftUpLeg
  {
    OFFSET 8.64259 1.95398 -2.38835
    CHANNELS 3 Zrotation Xrotation Yrotation
    JOINT LeftLeg
    {
      OFFSET 43.7702 0 0
      CHANNELS 3 Zrotation Xrotation Yrotation
      JOINT LeftFoot
      {
        OFFSET 40.6238 0 0
        CHANNELS 3 Zrotation Xrotation Yrotation
        JOINT LeftToeBase
        {
          OFFSET 12.7242 0 0
          CHANNELS 3 Zrotation Xrotation Yrotation
          End Site
          {
            OFFSET 0 0 0
          }
        }
      }
    }
  }
  JOINT RightUpLeg
  {
    OFFSET -8.2249 1.95398 -2.59336
    CHANNELS 3 Zrotation Xrotation Yrotation
    JOINT RightLeg
    {
      OFFSET 43.5653 0 0
      CHANNELS 3 Zrotation Xrotation Yrotation
      JOINT RightFoot
      {
        OFFSET 40.6238 0 0
        CHANNELS 3 Zrotation Xrotation Yrotation
        JOINT RightToeBase
        {
          OFFSET 12.7242 0 0
          CHANNELS 3 Zrotation Xrotation Yrotation
          End Site
          {
            OFFSET 0 0 0
          }
        }
      }
    }
  }
  JOINT Spine
  {
    OFFSET 0.165834 0.87714 6.61349
    CHANNELS 3 Zrotation Xrotation Yrotation
    JOINT Spine1
    {
      OFFSET 7.38963 1.71661e-005 0
      CHANNELS 3 Zrotation Xrotation Yrotation
      JOINT Spine2
      {
        OFFSET 11.9445 1.14441e-005 0
        CHANNELS 3 Zrotation Xrotation Yrotation
        JOINT Spine3
        {
          OFFSET 14.7254 4.19617e-005 0
          CHANNELS 3 Zrotation Xrotation Yrotation
          JOINT Spine4
          {
            OFFSET 10.9679 0 0
            CHANNELS 3 Zrotation Xrotation Yrotation
            JOINT RightShoulder
            {
              OFFSET 2.46616 -1.6653 3.69651
              CHANNELS 3 Zrotation Xrotation Yrotation
              JOINT RightArm
              {
                OFFSET 13.0012 0 0
                CHANNELS 3 Zrotation Xrotation Yrotation
                JOINT RightForeArm
                {
                  OFFSET 28.7848 1.52588e-005 0
                  CHANNELS 3 Zrotation Xrotation Yrotation
                  JOINT RightHand
                  {
                    OFFSET 26.5688 1.52588e-005 0
                    CHANNELS 3 Zrotation Xrotation Yrotation
                    End Site
                    {
                      OFFSET 0 0 0
                    }
                  }
                }
              }
            }
            JOINT LeftShoulder
            {
              OFFSET 2.38034 -1.29275 -3.7523
              CHANNELS 3 Zrotation Xrotation Yrotation
              JOINT LeftArm
              {
                OFFSET 16.3182 6.10352e-005 0
                CHANNELS 3 Zrotation Xrotation Yrotation
                JOINT LeftForeArm
                {
                  OFFSET 27.0901 0 0
                  CHANNELS 3 Zrotation Xrotation Yrotation
                  JOINT LeftHand
                  {
                    OFFSET 24.5451 1.52588e-005 0
                    CHANNELS 3 Zrotation Xrotation Yrotation
                    End Site
                    {
                      OFFSET 0 0 0
                    }
                  }
                }
              }
            }
            JOINT Neck
            {
              OFFSET 5.0226 -0.0266342 0
              CHANNELS 3 Zrotation Xrotation Yrotation
              JOINT Head
              {
                OFFSET 6.69363 2.86102e-005 0
                CHANNELS 3 Zrotation Xrotation Yrotation
                End Site
                {
                  OFFSET 0 0 0
                }
              }
            }
          }
        }
      }
    }
  }
}
MOTION
Frames:	15
Frame Time:	0.0416667
-19.259 101.836 59.5789 102.592 26.1982 83.8496 -175.633 -8.51156 86.5713 -14.5113 10.0099 8.06355 71.9145 5.54067 -0.101828 9.52998 -10.3762 4.53964 173.055 -6.48229 87.4516 -17.2475 -4.61047 0.0371457 65.856 -2.75912 1.12569 24.9284 -1.52595 2.87117 0.0169772 7.95062 -89.767 10.9721 0.141708 0.450173 -0.6989 0.161374 0.443494 -23.2334 -0.000154072 0.471948 -3.22079 -0.00014476 0.471945 84.6621 -48.531 -109.197 2.2311 -23.0169 -43.211 0.132051 27.5617 -44.1592 -6.80234 -0.117349 -3.22624 -90.9246 -45.8926 76.5891 -16.871 2.50799 -13.4974 -35.1021 -30.5082 -68.6393 -1.42416 -0.0625391 -1.26201 -6.47248 -5.81551 -9.30308 7.84844 -4.59223 4.31731 
-19.2964 101.839 59.4934 102.41 26.7422 83.868 -175.696 -8.0272 86.5886 -14.8721 10.267 8.14703 70.8722 4.90632 -0.5132 12.4743 -8.86636 4.39241 172.873 -6.33019 87.337 -17.1897 -4.35769 0.237267 65.9203 -2.82143 1.09614 25.0382 -1.46794 2.75724 0.0459572 7.93651 -89.7987 11.0004 0.184829 0.382875 -0.670575 0.201521 0.374353 -23.2053 0.0611938 0.420713 -3.19264 0.0612194 0.420718 85.1685 -47.9915 -108.6 2.97821 -22.9278 -42.8725 -1.93189 25.4797 -44.107 -4.59067 -0.0311828 -4.71991 -91.3702 -46.4542 76.0404 -16.3783 2.12046 -13.9457 -33.3846 -29.9635 -67.0395 -1.21304 -0.0508036 -0.61312 -6.20582 -1.55412 -6.27435 7.51463 -0.688288 3.49974 
-19.3823 101.803 59.366 102.437 27.6543 83.8107 -175.507 -7.61529 86.816 -15.5671 11.3835 8.00316 71.9121 5.34735 -0.65385 10.8831 -10.0374 5.12774 172.591 -6.40694 87.22 -17.082 -4.0638 0.576403 66.1838 -2.95758 1.13733 24.8131 -1.23045 1.89949 0.0628088 7.93683 -89.8155 10.9997 0.210517 0.347 -0.671238 0.225601 0.337384 -23.2061 0.0964967 0.394221 -3.19342 0.0964962 0.394221 84.7376 -48.2132 -109.188 3.3536 -22.076 -41.37 -1.03612 25.8619 -45.3321 -5.29781 -0.0557013 -4.19957 -91.7802 -46.7996 75.4974 -16.2374 2.3116 -14.23 -33.331 -30.2619 -66.5696 0.136656 0.0102162 0.127951 -5.63137 1.41015 -4.84369 6.88864 2.09778 3.07793 
-19.4997 101.786 59.1086 102.041 28.4534 83.7345 -175.765 -6.97948 86.4495 -15.8238 11.7138 8.04911 70.9031 4.92568 -0.527983 13.4977 -8.41189 4.48814 172.195 -5.94818 86.802 -17.2651 -3.84999 0.852954 66.369 -3.00555 1.08305 24.8098 -1.09485 1.47872 0.0837527 7.90807 -89.7995 11.0571 0.259672 0.373957 -0.613837 0.275901 0.362157 -23.1486 0.1353 0.434709 -3.13598 0.135289 0.434716 84.667 -48.4217 -109.226 3.44651 -21.4868 -40.6035 -1.12717 25.6885 -45.4863 -5.35096 -0.0548908 -4.2097 -91.7591 -46.6641 75.4947 -17.0572 2.49153 -14.6338 -32.8163 -30.2876 -66.1549 0.130615 1.03795e-005 -0.261706 -4.91894 3.47916 -3.99778 6.78826 4.07648 2.90584 
-19.4867 101.76 58.8222 101.725 29.2848 83.8537 -175.74 -6.44915 86.4735 -16.3102 12.2636 7.95181 71.2772 5.12128 -0.463216 13.1127 -8.40625 4.11529 172.213 -5.76559 86.7669 -17.1126 -2.27941 0.936303 65.8445 -2.89985 1.48994 26.0764 -1.29314 2.80227 0.111271 7.8959 -89.8381 11.0816 0.296605 0.29353 -0.589333 0.309271 0.280175 -23.1244 0.194678 0.369101 -3.11171 0.194709 0.3691 84.8441 -48.2131 -109.025 3.51877 -20.983 -40.2071 -1.50653 25.3523 -45.6896 -4.29439 -0.0183762 -5.16134 -91.9818 -47.1442 75.2787 -17.4256 2.68659 -15.3461 -32.1391 -30.4864 -65.3405 0.574561 0.0284047 0.285844 -4.08875 4.70342 -2.75558 6.48825 5.1424 2.49181 
-19.4663 101.759 58.3246 101.957 30.0201 83.4682 -175.848 -6.76483 86.1425 -16.1855 12.9709 7.96406 71.1395 5.1571 -0.289703 13.0151 -8.13302 3.49334 171.874 -6.10603 86.2744 -17.0984 -1.88029 1.00841 66.1022 -2.95153 1.45399 26.0547 -1.29654 2.7998 0.127056 7.93623 -89.8304 11.0008 0.331517 0.305665 -0.670088 0.344649 0.290773 -23.2051 0.224312 0.391164 -3.19249 0.224315 0.391167 84.532 -48.2303 -109.497 3.84081 -19.9332 -39.284 -0.242432 25.9941 -46.0248 -6.59189 -0.0635488 -4.24237 -91.7814 -47.0595 75.5637 -17.7674 4.3515 -16.2235 -32.4084 -31.1505 -65.9416 -1.62469 -0.0712444 -1.5578 -3.63548 5.38029 -2.00879 6.69301 5.69671 1.92587 
-19.4431 101.761 57.7528 101.785 30.9495 83.3497 -175.78 -6.6566 86.0055 -16.3171 13.9863 7.71742 71.4876 5.37199 -0.313498 13.127 -8.47199 4.25341 171.541 -6.29882 85.8601 -16.7716 -1.36711 1.18578 66.1325 -2.96431 1.54415 26.2691 -1.1181 2.35415 0.122437 7.90867 -89.8221 11.056 0.326327 0.322594 -0.614961 0.340223 0.307918 -23.15 0.21428 0.405759 -3.13731 0.214282 0.405758 84.7241 -48.2501 -109.196 4.12469 -19.6611 -38.9254 -1.56751 24.6888 -46.0197 -4.79033 -0.0128211 -5.14604 -91.6974 -47.0558 75.6915 -17.7985 4.96738 -16.775 -31.9974 -31.5158 -65.2381 -1.06994 -0.0500112 -0.952398 -3.06612 5.5982 -1.43129 6.31254 5.79485 1.25589 
-19.3166 101.748 57.0165 101.597 31.8291 83.259 -176.084 -6.82201 85.5576 -16.076 14.2103 7.91162 71.8068 5.48404 -0.701351 11.4664 -8.63421 3.06366 171.23 -6.66669 85.4031 -16.2222 -0.682548 1.32626 66.0602 -2.90169 1.55076 26.5835 -1.12296 2.55163 0.113362 7.89706 -89.8321 11.0793 0.303626 0.304907 -0.591671 0.316759 0.291238 -23.1267 0.197952 0.382058 -3.11403 0.19794 0.382053 84.8504 -48.1332 -109.042 4.05596 -19.4368 -38.7799 -5.47769 20.86 -45.6508 -0.0536609 -0.0274906 -6.42062 -91.6887 -47.0618 75.7063 -17.9995 5.20385 -17.4013 -31.7591 -31.7572 -64.6675 -1.25274 -0.0562571 -1.07166 -2.57997 5.62178 -0.896442 6.09608 5.73467 0.983011 
-19.2604 101.719 56.1369 101.529 32.8477 82.9357 -176.326 -6.90122 84.9205 -16.3457 14.8227 7.89215 71.9944 5.65071 -0.459878 12.5056 -8.57334 3.87901 170.678 -7.06943 84.6449 -15.764 -0.424564 1.4604 66.2802 -3.01805 1.67933 26.8002 -0.89614 1.93775 0.0894302 7.87218 -89.8421 11.1291 0.2514 0.289858 -0.541859 0.263913 0.278503 -23.0768 0.152653 0.352016 -3.06419 0.152646 0.352003 85.2866 -47.6921 -108.517 4.8629 -18.9533 -38.3356 3.21206 29.1617 -47.2479 -9.72798 -0.140543 -3.47642 -91.7306 -47.1682 75.6696 -18.3453 5.3462 -17.7365 -30.727 -31.5149 -64.1883 -1.42617 -0.0573532 -0.629601 -2.77245 5.56719 -0.361062 6.51735 5.61349 0.883064 
-19.063 101.62 55.3815 101.291 33.0261 83.0915 -176.164 -6.79119 84.8734 -16.8559 15.1386 7.57667 72.4859 5.86661 -0.383297 12.1658 -8.52165 3.4806 170.698 -7.10088 84.5095 -16.0107 0.215283 1.25759 66.549 -3.15783 1.78197 27.1911 -0.865393 2.05959 0.165811 7.85382 -89.8625 11.1659 0.394009 0.235116 -0.505063 0.403971 0.217541 -23.0404 0.305138 0.342664 -3.02771 0.305111 0.342654 85.2645 -47.8971 -108.484 4.90492 -18.4712 -37.7114 -1.51391 24.5301 -47.0719 -4.37171 -0.0309571 -4.91888 -91.5617 -46.6099 75.7847 -18.904 5.84106 -18.1292 -30.6161 -31.7288 -63.739 0.287018 0.0159635 0.306431 -2.38481 5.26392 -0.448992 6.30945 5.31248 0.765838 
-19.0034 101.411 54.4376 101.408 34.2343 82.754 -175.906 -6.1565 84.7563 -18.8845 16.4495 7.07889 73.5131 6.46511 0.109382 11.4716 -8.33902 2.5128 170.43 -6.74787 84.1171 -17.5383 1.3927 1.09883 67.2809 -3.54053 1.83875 28.4763 -0.652188 2.09732 0.110824 7.86021 -89.8757 11.1531 0.278366 0.220169 -0.517801 0.287802 0.207696 -23.0529 0.199334 0.293655 -3.04031 0.199317 0.293644 85.1226 -47.9694 -108.678 5.0154 -17.752 -37.0073 -2.14134 23.7779 -47.2265 -3.94959 -0.03262 -5.30076 -91.5627 -46.5986 75.7804 -19.2333 6.81803 -18.9059 -30.4523 -32.3859 -63.4731 0.291247 0.00303637 -0.339249 -2.36991 4.94453 -0.444939 6.56436 4.98226 0.569108 
-18.8596 100.915 53.6512 101.82 34.9779 82.3452 -175.316 -5.12471 84.9773 -22.3013 17.3698 6.36988 75.6422 7.27499 -0.0277659 11.616 -8.47292 2.88745 170.868 -5.54942 84.3612 -21.4269 3.50191 0.342608 68.7078 -4.39132 2.10578 30.6309 -0.353335 2.36891 0.121261 7.89214 -89.8898 11.0893 0.2925 0.190817 -0.581658 0.300622 0.177749 -23.1169 0.221633 0.269906 -3.10422 0.221632 0.269899 85.3037 -47.9983 -108.39 5.26063 -17.0646 -36.3369 -1.98444 23.8399 -47.3042 -3.97277 -0.0206503 -5.17522 -91.5793 -46.1504 75.638 -20.3505 6.93395 -19.766 -29.3213 -32.4853 -62.215 -0.0965947 -0.00303378 0.0276057 -2.44198 4.5939 -1.0722 6.36211 4.741 0.97835 
-18.8595 100.286 52.9698 102.035 35.2441 81.604 -175.104 -3.95318 84.4472 -25.68 17.5825 5.79278 77.6282 8.05982 0.171223 10.8313 -8.57013 2.38253 171.976 -1.77534 84.3953 -29.2589 4.6867 -0.892963 69.9055 -5.07988 1.4662 31.9495 0.0639999 1.63297 0.157165 7.9735 -89.8019 10.9261 0.404627 0.355906 -0.74481 0.419902 0.337735 -23.2799 0.278964 0.461056 -3.2672 0.278959 0.461055 84.9591 -48.4823 -108.759 4.96433 -15.8627 -35.9572 -0.965115 24.5871 -47.5418 -5.40685 -0.0847244 -3.51518 -90.9181 -44.6773 76.29 -21.9689 7.08001 -21.5958 -27.6864 -32.5861 -60.9078 0.699267 0.0424859 0.629675 -1.47108 4.31418 -3.13446 5.96429 4.83184 2.34696 
-18.5747 99.9478 52.3278 102.336 35.006 80.9524 -175.083 -4.18826 83.8892 -26.6116 16.9754 5.46621 78.3487 8.17261 -0.180325 11.3792 -8.13832 2.04279 174.035 3.26749 85.1588 -39.348 4.58777 -2.60814 70.9553 -5.25774 0.542123 28.5742 -0.782253 2.58974 0.208974 8.03701 -89.7492 10.7986 0.531729 0.449358 -0.872275 0.551027 0.425511 -23.4073 0.372115 0.588393 -3.39465 0.37212 0.58839 84.9725 -48.3915 -108.769 4.57151 -15.9095 -36.247 -0.623084 24.9471 -47.6134 -4.57948 -0.0454455 -4.47719 -91.084 -44.9696 76.1042 -21.15 6.51068 -22.6145 -27.5059 -32.3516 -60.4551 1.49305 0.0872872 0.970894 -1.45129 4.15397 -2.55806 6.10661 4.49795 0.971678 
-18.1025 99.8387 51.6306 102.374 35.2622 80.9988 -175.326 -4.52091 83.5305 -27.1791 16.956 5.86245 79.302 8.84404 0.617094 9.55374 -8.51982 1.23598 175.701 7.89372 86.7758 -46.307 2.57037 -3.44369 72.2582 -5.47018 -0.478398 26.1306 -1.28465 2.82279 0.191335 8.06559 -89.7458 10.7416 0.498219 0.459452 -0.929376 0.517961 0.437065 -23.4643 0.337105 0.587942 -3.45162 0.337105 0.587937 84.4919 -48.7253 -109.391 4.07511 -15.9699 -36.3349 -1.52736 24.353 -47.6942 -2.44667 -0.0124573 -5.6412 -90.8978 -44.703 76.3288 -21.3816 5.82776 -23.8675 -26.2646 -32.6064 -58.7272 1.88165 0.123709 1.47551 -1.43248 4.20761 -3.33873 5.70596 4.68161 1.41725 
